<svg width="135" height="15" viewBox="0 0 135 15" fill="none" xmlns="http://www.w3.org/2000/svg">
<mask id="mask0_194_1983" style="mask-type:luminance" maskUnits="userSpaceOnUse" x="0" y="0" width="13" height="15">
<path d="M3.83824 0.933818C2.64898 1.548 1.71363 2.39018 1.03574 3.46145C0.360204 4.53273 0.012991 5.76436 0 7.15636C0.00944798 8.50582 0.337765 9.70145 0.989676 10.7455C1.63923 11.7895 2.55922 12.6098 3.74849 13.2055C4.93421 13.8033 6.33842 14.1098 7.95638 14.1196C8.85276 14.1273 9.68655 14.0553 10.4518 13.9036C11.2171 13.752 11.9115 13.4771 12.5328 13.08V10.236C11.7415 10.7935 10.9786 11.1633 10.2452 11.3444C9.51058 11.5255 8.72521 11.6084 7.8867 11.5953C7.00568 11.5833 6.2215 11.3662 5.53534 10.9473C4.85036 10.5262 4.31064 9.97091 3.91501 9.27709C3.52056 8.58109 3.31979 7.81855 3.31388 6.98509C3.34341 5.61709 3.80399 4.52727 4.69683 3.71236C5.58966 2.90182 6.72933 2.484 8.11818 2.46436C8.97322 2.46109 9.7456 2.56255 10.4282 2.76655C11.1132 2.97164 11.8147 3.29455 12.5328 3.73745V0.871636C11.386 0.293455 9.86133 0.00545454 7.95638 0C6.40219 0.0130909 5.02987 0.324 3.83824 0.933818Z" fill="white"/>
</mask>
<g mask="url(#mask0_194_1983)">
<path fill-rule="evenodd" clip-rule="evenodd" d="M-74.5566 55.8305H1135.19V-77.3705H-74.5566V55.8305Z" fill="white"/>
</g>
<mask id="mask1_194_1983" style="mask-type:luminance" maskUnits="userSpaceOnUse" x="0" y="0" width="13" height="15">
<path d="M3.83824 0.933818C2.64898 1.548 1.71363 2.39018 1.03574 3.46145C0.360204 4.53273 0.012991 5.76436 0 7.15636C0.00944798 8.50582 0.337765 9.70145 0.989676 10.7455C1.63923 11.7895 2.55922 12.6098 3.74849 13.2055C4.93421 13.8033 6.33842 14.1098 7.95638 14.1196C8.85276 14.1273 9.68655 14.0553 10.4518 13.9036C11.2171 13.752 11.9115 13.4771 12.5328 13.08V10.236C11.7415 10.7935 10.9786 11.1633 10.2452 11.3444C9.51058 11.5255 8.72521 11.6084 7.8867 11.5953C7.00568 11.5833 6.2215 11.3662 5.53534 10.9473C4.85036 10.5262 4.31064 9.97091 3.91501 9.27709C3.52056 8.58109 3.31979 7.81855 3.31388 6.98509C3.34341 5.61709 3.80399 4.52727 4.69683 3.71236C5.58966 2.90182 6.72933 2.484 8.11818 2.46436C8.97322 2.46109 9.7456 2.56255 10.4282 2.76655C11.1132 2.97164 11.8147 3.29455 12.5328 3.73745V0.871636C11.386 0.293455 9.86133 0.00545454 7.95638 0C6.40219 0.0130909 5.02987 0.324 3.83824 0.933818Z" fill="white"/>
</mask>
<g mask="url(#mask1_194_1983)">
<path fill-rule="evenodd" clip-rule="evenodd" d="M-4.83984 18.5912H17.37V-4.46948H-4.83984V18.5912Z" fill="white"/>
</g>
<mask id="mask2_194_1983" style="mask-type:luminance" maskUnits="userSpaceOnUse" x="15" y="0" width="15" height="15">
<path d="M17.4578 1.93528C16.1901 3.19746 15.5391 4.9091 15.5117 7.07128C15.5197 8.49492 15.8178 9.73528 16.4071 10.7924C16.9953 11.8473 17.821 12.6676 18.8842 13.2524C19.9475 13.8371 21.1958 14.1327 22.6279 14.1415C24.0589 14.1327 25.3061 13.8371 26.3682 13.2524C27.4326 12.6676 28.2583 11.8473 28.8465 10.7924C29.4346 9.73528 29.735 8.49492 29.743 7.07128C29.7144 4.9091 29.0589 3.19746 27.7855 1.93528C26.5109 0.67419 24.791 0.0283714 22.6279 0.00109863C20.4534 0.0283714 18.7301 0.67419 17.4578 1.93528ZM19.7362 10.4389C19.0613 9.60546 18.7209 8.48183 18.7129 7.07128C18.7209 5.65964 19.0613 4.5371 19.7362 3.70255C20.4089 2.86801 21.3739 2.44146 22.6279 2.42073C23.8682 2.44146 24.8321 2.86801 25.5082 3.70255C26.1877 4.5371 26.5315 5.65964 26.5406 7.07128C26.5315 8.48183 26.1877 9.60546 25.5082 10.4389C24.8321 11.2746 23.8682 11.7022 22.6279 11.7218C21.3739 11.7022 20.4089 11.2746 19.7362 10.4389Z" fill="white"/>
</mask>
<g mask="url(#mask2_194_1983)">
<path fill-rule="evenodd" clip-rule="evenodd" d="M-71.9629 55.8305H1097.9V-77.3705H-71.9629V55.8305Z" fill="white"/>
</g>
<mask id="mask3_194_1983" style="mask-type:luminance" maskUnits="userSpaceOnUse" x="15" y="0" width="15" height="15">
<path d="M17.4578 1.93528C16.1901 3.19746 15.5391 4.9091 15.5117 7.07128C15.5197 8.49492 15.8178 9.73528 16.4071 10.7924C16.9953 11.8473 17.821 12.6676 18.8842 13.2524C19.9475 13.8371 21.1958 14.1327 22.6279 14.1415C24.0589 14.1327 25.3061 13.8371 26.3682 13.2524C27.4326 12.6676 28.2583 11.8473 28.8465 10.7924C29.4346 9.73528 29.735 8.49492 29.743 7.07128C29.7144 4.9091 29.0589 3.19746 27.7855 1.93528C26.5109 0.67419 24.791 0.0283714 22.6279 0.00109863C20.4534 0.0283714 18.7301 0.67419 17.4578 1.93528ZM19.7362 10.4389C19.0613 9.60546 18.7209 8.48183 18.7129 7.07128C18.7209 5.65964 19.0613 4.5371 19.7362 3.70255C20.4089 2.86801 21.3739 2.44146 22.6279 2.42073C23.8682 2.44146 24.8321 2.86801 25.5082 3.70255C26.1877 4.5371 26.5315 5.65964 26.5406 7.07128C26.5315 8.48183 26.1877 9.60546 25.5082 10.4389C24.8321 11.2746 23.8682 11.7022 22.6279 11.7218C21.3739 11.7022 20.4089 11.2746 19.7362 10.4389Z" fill="white"/>
</mask>
<g mask="url(#mask3_194_1983)">
<path fill-rule="evenodd" clip-rule="evenodd" d="M10.832 18.6109H34.4225V-4.46836H10.832V18.6109Z" fill="white"/>
</g>
<mask id="mask4_194_1983" style="mask-type:luminance" maskUnits="userSpaceOnUse" x="34" y="0" width="10" height="15">
<path d="M35.805 1.15746C34.8679 1.88728 34.3849 2.89637 34.3571 4.18255C34.3471 4.93855 34.5603 5.616 34.9889 6.21709C35.4186 6.82255 36.1148 7.34728 37.0808 7.79237L38.9184 8.64219C39.3648 8.83528 39.7056 9.05346 39.941 9.29782C40.1787 9.54219 40.2986 9.86073 40.3019 10.2556C40.2886 10.6855 40.0932 11.0553 39.719 11.3629C39.3426 11.6727 38.8662 11.8342 38.2911 11.8484C37.4372 11.8429 36.6633 11.7327 35.9727 11.5222C35.2809 11.3116 34.6703 11.0367 34.1406 10.7029L34.4215 13.632C35.0622 13.8502 35.724 13.9898 36.4057 14.0542C37.0841 14.1196 37.757 14.148 38.421 14.1436C39.3459 14.1371 40.1775 13.9625 40.9126 13.6145C41.6487 13.2709 42.2328 12.7855 42.6658 12.1636C43.0988 11.5418 43.3176 10.8142 43.3276 9.98073C43.3065 9.11673 43.0533 8.39564 42.5759 7.80873C42.094 7.224 41.5255 6.78546 40.8648 6.49855L38.7452 5.54182C38.3255 5.36182 37.9802 5.13273 37.7126 4.85237C37.445 4.57091 37.3051 4.23709 37.2973 3.84437C37.3084 3.37091 37.5116 2.99891 37.9091 2.72946C38.3033 2.45782 38.8196 2.32037 39.458 2.316C40.0054 2.30073 40.544 2.37819 41.0736 2.54619C41.6066 2.71419 42.2195 3.06219 42.9179 3.58909V0.829095C42.5181 0.628367 42.0018 0.45164 41.3656 0.293458C40.7305 0.135277 40.0943 0.0512765 39.458 0.0436401C37.9602 0.0556401 36.741 0.426549 35.805 1.15746Z" fill="white"/>
</mask>
<g mask="url(#mask4_194_1983)">
<path fill-rule="evenodd" clip-rule="evenodd" d="M-68.332 55.8305H1069.03V-77.3705H-68.332V55.8305Z" fill="white"/>
</g>
<mask id="mask5_194_1983" style="mask-type:luminance" maskUnits="userSpaceOnUse" x="34" y="0" width="10" height="15">
<path d="M35.805 1.15746C34.8679 1.88728 34.3849 2.89637 34.3571 4.18255C34.3471 4.93855 34.5603 5.616 34.9889 6.21709C35.4186 6.82255 36.1148 7.34728 37.0808 7.79237L38.9184 8.64219C39.3648 8.83528 39.7056 9.05346 39.941 9.29782C40.1787 9.54219 40.2986 9.86073 40.3019 10.2556C40.2886 10.6855 40.0932 11.0553 39.719 11.3629C39.3426 11.6727 38.8662 11.8342 38.2911 11.8484C37.4372 11.8429 36.6633 11.7327 35.9727 11.5222C35.2809 11.3116 34.6703 11.0367 34.1406 10.7029L34.4215 13.632C35.0622 13.8502 35.724 13.9898 36.4057 14.0542C37.0841 14.1196 37.757 14.148 38.421 14.1436C39.3459 14.1371 40.1775 13.9625 40.9126 13.6145C41.6487 13.2709 42.2328 12.7855 42.6658 12.1636C43.0988 11.5418 43.3176 10.8142 43.3276 9.98073C43.3065 9.11673 43.0533 8.39564 42.5759 7.80873C42.094 7.224 41.5255 6.78546 40.8648 6.49855L38.7452 5.54182C38.3255 5.36182 37.9802 5.13273 37.7126 4.85237C37.445 4.57091 37.3051 4.23709 37.2973 3.84437C37.3084 3.37091 37.5116 2.99891 37.9091 2.72946C38.3033 2.45782 38.8196 2.32037 39.458 2.316C40.0054 2.30073 40.544 2.37819 41.0736 2.54619C41.6066 2.71419 42.2195 3.06219 42.9179 3.58909V0.829095C42.5181 0.628367 42.0018 0.45164 41.3656 0.293458C40.7305 0.135277 40.0943 0.0512765 39.458 0.0436401C37.9602 0.0556401 36.741 0.426549 35.805 1.15746Z" fill="white"/>
</mask>
<g mask="url(#mask5_194_1983)">
<path fill-rule="evenodd" clip-rule="evenodd" d="M29.5938 18.6131H47.8799V-4.42688H29.5938V18.6131Z" fill="white"/>
</g>
<mask id="mask6_194_1983" style="mask-type:luminance" maskUnits="userSpaceOnUse" x="47" y="0" width="10" height="14">
<path d="M47.7285 0.0985718V13.8605H55.5964L56.4625 11.4595H50.6898V8.05177H54.4516L55.23 5.73663H50.6898V2.43574H55.3599L56.1582 0.0985718H47.7285Z" fill="white"/>
</mask>
<g mask="url(#mask6_194_1983)">
<path fill-rule="evenodd" clip-rule="evenodd" d="M-68.6641 56.2292H1068.7V-78.2527H-68.6641V56.2292Z" fill="white"/>
</g>
<mask id="mask7_194_1983" style="mask-type:luminance" maskUnits="userSpaceOnUse" x="47" y="0" width="10" height="14">
<path d="M47.7285 0.0985718V13.8605H55.5964L56.4625 11.4595H50.6898V8.05177H54.4516L55.23 5.73663H50.6898V2.43574H55.3599L56.1582 0.0985718H47.7285Z" fill="white"/>
</mask>
<g mask="url(#mask7_194_1983)">
<path fill-rule="evenodd" clip-rule="evenodd" d="M43.1816 18.3741H61.0137V-4.41388H43.1816V18.3741Z" fill="white"/>
</g>
<mask id="mask8_194_1983" style="mask-type:luminance" maskUnits="userSpaceOnUse" x="60" y="0" width="14" height="14">
<path d="M71.233 0.0985718V8.02974L64.6549 0.0985718H60.7461L62.252 1.87843V13.8605H64.9916V5.1573L72.2881 13.8605H73.9946V0.0985718H71.233Z" fill="white"/>
</mask>
<g mask="url(#mask8_194_1983)">
<path fill-rule="evenodd" clip-rule="evenodd" d="M-72.7988 56.2292H1108.31V-78.2527H-72.7988V56.2292Z" fill="white"/>
</g>
<mask id="mask9_194_1983" style="mask-type:luminance" maskUnits="userSpaceOnUse" x="60" y="0" width="14" height="14">
<path d="M71.233 0.0985718V8.02974L64.6549 0.0985718H60.7461L62.252 1.87843V13.8605H64.9916V5.1573L72.2881 13.8605H73.9946V0.0985718H71.233Z" fill="white"/>
</mask>
<g mask="url(#mask9_194_1983)">
<path fill-rule="evenodd" clip-rule="evenodd" d="M56.0234 18.3741H78.72V-4.41388H56.0234V18.3741Z" fill="white"/>
</g>
<mask id="mask10_194_1983" style="mask-type:luminance" maskUnits="userSpaceOnUse" x="77" y="0" width="12" height="14">
<path d="M77.209 0.0985718V2.5646H81.1417V13.8605H84.3162V2.5646H87.9939L88.8454 0.0985718H77.209Z" fill="white"/>
</mask>
<g mask="url(#mask10_194_1983)">
<path fill-rule="evenodd" clip-rule="evenodd" d="M-76.7344 56.2292H1133.01V-78.2527H-76.7344V56.2292Z" fill="white"/>
</g>
<mask id="mask11_194_1983" style="mask-type:luminance" maskUnits="userSpaceOnUse" x="77" y="0" width="12" height="14">
<path d="M77.209 0.0985718V2.5646H81.1417V13.8605H84.3162V2.5646H87.9939L88.8454 0.0985718H77.209Z" fill="white"/>
</mask>
<g mask="url(#mask11_194_1983)">
<path fill-rule="evenodd" clip-rule="evenodd" d="M72.3691 18.3741H93.6838V-4.41388H72.3691V18.3741Z" fill="white"/>
</g>
<mask id="mask12_194_1983" style="mask-type:luminance" maskUnits="userSpaceOnUse" x="91" y="0" width="4" height="14">
<path d="M91.9824 0.0985699H94.6496V13.8605H91.9824V0.0985699Z" fill="white"/>
</mask>
<g mask="url(#mask12_194_1983)">
<path fill-rule="evenodd" clip-rule="evenodd" d="M-51.1211 56.2292H972.508V-78.2527H-51.1211V56.2292Z" fill="white"/>
</g>
<mask id="mask13_194_1983" style="mask-type:luminance" maskUnits="userSpaceOnUse" x="91" y="0" width="4" height="14">
<path d="M91.9824 0.0985699H94.6496V13.8605H91.9824V0.0985699Z" fill="white"/>
</mask>
<g mask="url(#mask13_194_1983)">
<path fill-rule="evenodd" clip-rule="evenodd" d="M87.8867 18.3741H98.7412V-4.41388H87.8867V18.3741Z" fill="white"/>
</g>
<mask id="mask14_194_1983" style="mask-type:luminance" maskUnits="userSpaceOnUse" x="99" y="0" width="14" height="14">
<path d="M110.065 0.0985718V8.02974L103.488 0.0985718H99.5801L101.085 1.87843V13.8605H103.823V5.1573L111.121 13.8605H112.829V0.0985718H110.065Z" fill="white"/>
</mask>
<g mask="url(#mask14_194_1983)">
<path fill-rule="evenodd" clip-rule="evenodd" d="M-73.0273 56.2291H1108.08V-78.2527H-73.0273V56.2291Z" fill="white"/>
</g>
<mask id="mask15_194_1983" style="mask-type:luminance" maskUnits="userSpaceOnUse" x="99" y="0" width="14" height="14">
<path d="M110.065 0.0985718V8.02974L103.488 0.0985718H99.5801L101.085 1.87843V13.8605H103.823V5.1573L111.121 13.8605H112.829V0.0985718H110.065Z" fill="white"/>
</mask>
<g mask="url(#mask15_194_1983)">
<path fill-rule="evenodd" clip-rule="evenodd" d="M94.8574 18.3741H117.555V-4.41388H94.8574V18.3741Z" fill="white"/>
</g>
<mask id="mask16_194_1983" style="mask-type:luminance" maskUnits="userSpaceOnUse" x="116" y="0" width="15" height="15">
<path d="M118.494 1.93528C117.223 3.19746 116.573 4.9091 116.545 7.07128C116.554 8.49492 116.852 9.73528 117.443 10.7924C118.03 11.8473 118.855 12.6676 119.919 13.2524C120.982 13.8371 122.23 14.1327 123.661 14.1415C125.093 14.1327 126.339 13.8371 127.403 13.2524C128.467 12.6676 129.293 11.8473 129.881 10.7924C130.47 9.73528 130.768 8.49492 130.777 7.07128C130.748 4.9091 130.094 3.19746 128.82 1.93528C127.545 0.67419 125.824 0.0283714 123.661 0.00109863C121.487 0.0283714 119.766 0.67419 118.494 1.93528ZM120.772 10.4389C120.096 9.60546 119.755 8.48183 119.747 7.07128C119.755 5.65964 120.096 4.5371 120.772 3.70255C121.443 2.86801 122.408 2.44146 123.661 2.42073C124.904 2.44146 125.864 2.86801 126.543 3.70255C127.222 4.5371 127.566 5.65964 127.575 7.07128C127.566 8.48183 127.222 9.60546 126.543 10.4389C125.864 11.2746 124.904 11.7022 123.661 11.7218C122.408 11.7022 121.443 11.2746 120.772 10.4389Z" fill="white"/>
</mask>
<g mask="url(#mask16_194_1983)">
<path fill-rule="evenodd" clip-rule="evenodd" d="M-71.5352 55.8305H1098.33V-77.3705H-71.5352V55.8305Z" fill="white"/>
</g>
<mask id="mask17_194_1983" style="mask-type:luminance" maskUnits="userSpaceOnUse" x="116" y="0" width="15" height="15">
<path d="M118.494 1.93528C117.223 3.19746 116.573 4.9091 116.545 7.07128C116.554 8.49492 116.852 9.73528 117.443 10.7924C118.03 11.8473 118.855 12.6676 119.919 13.2524C120.982 13.8371 122.23 14.1327 123.661 14.1415C125.093 14.1327 126.339 13.8371 127.403 13.2524C128.467 12.6676 129.293 11.8473 129.881 10.7924C130.47 9.73528 130.768 8.49492 130.777 7.07128C130.748 4.9091 130.094 3.19746 128.82 1.93528C127.545 0.67419 125.824 0.0283714 123.661 0.00109863C121.487 0.0283714 119.766 0.67419 118.494 1.93528ZM120.772 10.4389C120.096 9.60546 119.755 8.48183 119.747 7.07128C119.755 5.65964 120.096 4.5371 120.772 3.70255C121.443 2.86801 122.408 2.44146 123.661 2.42073C124.904 2.44146 125.864 2.86801 126.543 3.70255C127.222 4.5371 127.566 5.65964 127.575 7.07128C127.566 8.48183 127.222 9.60546 126.543 10.4389C125.864 11.2746 124.904 11.7022 123.661 11.7218C122.408 11.7022 121.443 11.2746 120.772 10.4389Z" fill="white"/>
</mask>
<g mask="url(#mask17_194_1983)">
<path fill-rule="evenodd" clip-rule="evenodd" d="M111.865 18.6109H135.456V-4.46838H111.865V18.6109Z" fill="white"/>
</g>
<mask id="mask18_194_1983" style="mask-type:luminance" maskUnits="userSpaceOnUse" x="131" y="0" width="4" height="3">
<path d="M131.963 1.45815C131.963 2.0261 132.56 2.48428 133.297 2.48428C134.029 2.48428 134.626 2.0261 134.626 1.45815C134.626 0.894012 134.029 0.434875 133.297 0.434875C132.56 0.434875 131.963 0.894012 131.963 1.45815ZM132.17 1.45815C132.17 0.980876 132.674 0.59333 133.297 0.59333C133.914 0.59333 134.417 0.980876 134.417 1.45815C134.417 1.93733 133.914 2.32392 133.297 2.32392C132.674 2.32392 132.17 1.93733 132.17 1.45815ZM132.739 0.872057V2.05092H133.003V1.56219H133.167L133.637 2.05092H133.964L133.451 1.54788C133.71 1.52688 133.864 1.39801 133.864 1.20328C133.864 0.972285 133.688 0.872057 133.289 0.872057H132.739ZM133.003 1.02956H133.249C133.378 1.02956 133.454 1.03815 133.504 1.05533C133.562 1.07919 133.601 1.14124 133.601 1.20901C133.601 1.35315 133.488 1.42092 133.249 1.42092H133.003V1.02956Z" fill="white"/>
</mask>
<g mask="url(#mask18_194_1983)">
<path fill-rule="evenodd" clip-rule="evenodd" d="M-90.3438 48.7397H1189.19V-67.8113H-90.3438V48.7397Z" fill="white"/>
</g>
<mask id="mask19_194_1983" style="mask-type:luminance" maskUnits="userSpaceOnUse" x="131" y="0" width="4" height="3">
<path d="M131.963 1.45815C131.963 2.0261 132.56 2.48428 133.297 2.48428C134.029 2.48428 134.626 2.0261 134.626 1.45815C134.626 0.894012 134.029 0.434875 133.297 0.434875C132.56 0.434875 131.963 0.894012 131.963 1.45815ZM132.17 1.45815C132.17 0.980876 132.674 0.59333 133.297 0.59333C133.914 0.59333 134.417 0.980876 134.417 1.45815C134.417 1.93733 133.914 2.32392 133.297 2.32392C132.674 2.32392 132.17 1.93733 132.17 1.45815ZM132.739 0.872057V2.05092H133.003V1.56219H133.167L133.637 2.05092H133.964L133.451 1.54788C133.71 1.52688 133.864 1.39801 133.864 1.20328C133.864 0.972285 133.688 0.872057 133.289 0.872057H132.739ZM133.003 1.02956H133.249C133.378 1.02956 133.454 1.03815 133.504 1.05533C133.562 1.07919 133.601 1.14124 133.601 1.20901C133.601 1.35315 133.488 1.42092 133.249 1.42092H133.003V1.02956Z" fill="white"/>
</mask>
<g mask="url(#mask19_194_1983)">
<path fill-rule="evenodd" clip-rule="evenodd" d="M126.846 6.39601H139.745V-3.47685H126.846V6.39601Z" fill="white"/>
</g>
</svg>
